<svg width="20" height="20" viewBox="0 0 20 20" fill="none" xmlns="http://www.w3.org/2000/svg">
<path d="M8 4H5C4.447 4 4 4.447 4 5V8C4 8.552 4.447 9 5 9H8C8.553 9 9 8.552 9 8V5C9 4.448 8.553 4 8 4ZM15 4H12C11.447 4 11 4.447 11 5V8C11 8.552 11.447 9 12 9H15C15.553 9 16 8.552 16 8V5C16 4.448 15.553 4 15 4ZM8 11H5C4.447 11 4 11.447 4 12V15C4 15.552 4.447 16 5 16H8C8.553 16 9 15.552 9 15V12C9 11.448 8.553 11 8 11ZM15 11H12C11.447 11 11 11.447 11 12V15C11 15.552 11.447 16 12 16H15C15.553 16 16 15.552 16 15V12C16 11.448 15.553 11 15 11Z" fill="#FF6700"/>
</svg>
