<svg width="64" height="64" xmlns="http://www.w3.org/2000/svg">

 <title/>
 <g>
  <title>background</title>
  <rect fill="none" id="canvas_background" height="66" width="66" y="-1" x="-1"/>
 </g>
 <g>
  <title>Layer 1</title>
  <path fill="#ff6700" id="svg_1" d="m32,8a18.87,18.87 0 0 0 -18.87,18.87c0,12.39 15.34,29.13 18.87,29.13s18.87,-16.27 18.87,-29.13a18.87,18.87 0 0 0 -18.87,-18.87zm-0.09,33a13.44,13.44 0 1 1 13.44,-13.44a13.44,13.44 0 0 1 -13.44,13.44zm0,0" class="cls-1"/>
  <path fill="#bf3737" id="svg_2" d="m31.91,16.73l0,0a0.52,0.52 0 0 0 -0.44,0.78a5.21,5.21 0 0 1 0.75,2.59a5.35,5.35 0 0 1 -5.22,5.39a5.25,5.25 0 0 1 -4.2,-2.08a0.53,0.53 0 0 0 -0.9,0.13a10.68,10.68 0 0 0 -0.76,4.53a10.84,10.84 0 1 0 10.77,-11.34zm0,0" class="cls-2"/>
 </g>
</svg>